<?xml version="1.0" encoding="UTF-8"?>
<svg xmlns="http://www.w3.org/2000/svg" viewBox="0 0 48 48" width="48" height="48">
  <defs>
    <linearGradient id="krgb-rainbow" gradientUnits="userSpaceOnUse" x1="7" y1="0" x2="40" y2="0">
      <stop offset="0" stop-color="#ff3b30"/>
      <stop offset="0.2" stop-color="#ff9500"/>
      <stop offset="0.38" stop-color="#ffcc00"/>
      <stop offset="0.56" stop-color="#34c759"/>
      <stop offset="0.76" stop-color="#0a84ff"/>
      <stop offset="1" stop-color="#bf5af2"/>
    </linearGradient>
  </defs>
  <rect x="2.5" y="10" width="43" height="28" rx="5" fill="#1f1f27"/>
  <rect x="2.5" y="10" width="43" height="28" rx="5" fill="none" stroke="#3b3b48" stroke-width="1.2"/>
  <g fill="url(#krgb-rainbow)">
    <rect x="7"    y="14"   width="5" height="5" rx="1.2"/>
    <rect x="13.6" y="14"   width="5" height="5" rx="1.2"/>
    <rect x="20.2" y="14"   width="5" height="5" rx="1.2"/>
    <rect x="26.8" y="14"   width="5" height="5" rx="1.2"/>
    <rect x="33.4" y="14"   width="5" height="5" rx="1.2"/>
    <rect x="7"    y="20.6" width="5" height="5" rx="1.2"/>
    <rect x="13.6" y="20.6" width="5" height="5" rx="1.2"/>
    <rect x="20.2" y="20.6" width="5" height="5" rx="1.2"/>
    <rect x="26.8" y="20.6" width="5" height="5" rx="1.2"/>
    <rect x="33.4" y="20.6" width="5" height="5" rx="1.2"/>
    <rect x="7"    y="27.2" width="5"    height="5" rx="1.2"/>
    <rect x="13.6" y="27.2" width="20.8" height="5" rx="1.5"/>
    <rect x="36"   y="27.2" width="2.4"  height="5" rx="1.0"/>
  </g>
</svg>
